<?xml version="1.0" encoding="UTF-8" standalone="no"?>
<!-- Created with Inkscape (http://www.inkscape.org/) -->

<svg
   width="64"
   height="64"
   viewBox="0 0 64 64.000003"
   version="1.1"
   id="svg1"
   xml:space="preserve"
   inkscape:export-filename="settingsIcon.png"
   inkscape:export-xdpi="96"
   inkscape:export-ydpi="96"
   sodipodi:docname="commands-icon.svg"
   inkscape:version="1.3.2 (091e20e, 2023-11-25, custom)"
   xmlns:inkscape="http://www.inkscape.org/namespaces/inkscape"
   xmlns:sodipodi="http://sodipodi.sourceforge.net/DTD/sodipodi-0.dtd"
   xmlns="http://www.w3.org/2000/svg"
   xmlns:svg="http://www.w3.org/2000/svg"><sodipodi:namedview
     id="namedview1"
     pagecolor="#ffffff"
     bordercolor="#666666"
     borderopacity="1.0"
     inkscape:showpageshadow="2"
     inkscape:pageopacity="0.0"
     inkscape:pagecheckerboard="0"
     inkscape:deskcolor="#d1d1d1"
     inkscape:document-units="px"
     inkscape:zoom="8.2747365"
     inkscape:cx="51.723701"
     inkscape:cy="22.901031"
     inkscape:window-width="1920"
     inkscape:window-height="1017"
     inkscape:window-x="1912"
     inkscape:window-y="-8"
     inkscape:window-maximized="1"
     inkscape:current-layer="svg1" /><defs
     id="defs1" /><g
     inkscape:groupmode="layer"
     id="layer2"
     inkscape:label="BG"><rect
       style="fill:#00ff00;fill-opacity:1;stroke-width:0.745"
       id="rect1"
       width="64"
       height="64"
       x="0"
       y="0" /></g><g
     style="fill:#000000"
     id="g1"
     transform="scale(1.7222222)"><path
       d="M 32,5 H 4 A 2,2 0 0 0 2,7 v 22 a 2,2 0 0 0 2,2 h 28 a 2,2 0 0 0 2,-2 V 7 A 2,2 0 0 0 32,5 Z M 6.8,15.81 v -2.64 l 10,4.59 v 2.08 l -10,4.59 v -2.65 l 6.51,-3 z M 23.4,25.4 H 17 V 23 h 6.4 z M 4,9.2 V 7 h 28 v 2.2 z"
       class="clr-i-solid clr-i-solid-path-1"
       id="path1-6"
       style="display:inline;fill:#ff9900;fill-opacity:1" /><rect
       x="0"
       y="0"
       width="36"
       height="36"
       fill-opacity="0"
       id="rect1-5"
       style="display:inline" /></g></svg>
