<?xml version="1.0" encoding="UTF-8" standalone="no"?>
<!-- Created with Inkscape (http://www.inkscape.org/) -->

<svg
   width="240"
   height="135"
   viewBox="0 0 240 135"
   version="1.1"
   id="svg1"
   xml:space="preserve"
   inkscape:version="1.3.2 (091e20e, 2023-11-25, custom)"
   sodipodi:docname="JKBMSFob.svg"
   inkscape:export-filename="JKBMSFob.png"
   inkscape:export-xdpi="96"
   inkscape:export-ydpi="96"
   xmlns:inkscape="http://www.inkscape.org/namespaces/inkscape"
   xmlns:sodipodi="http://sodipodi.sourceforge.net/DTD/sodipodi-0.dtd"
   xmlns="http://www.w3.org/2000/svg"
   xmlns:svg="http://www.w3.org/2000/svg"><sodipodi:namedview
     id="namedview1"
     pagecolor="#ffffff"
     bordercolor="#666666"
     borderopacity="1.0"
     inkscape:showpageshadow="2"
     inkscape:pageopacity="0.0"
     inkscape:pagecheckerboard="0"
     inkscape:deskcolor="#d1d1d1"
     inkscape:document-units="px"
     inkscape:zoom="2.1266375"
     inkscape:cx="94.045175"
     inkscape:cy="80.643738"
     inkscape:window-width="1350"
     inkscape:window-height="967"
     inkscape:window-x="1976"
     inkscape:window-y="31"
     inkscape:window-maximized="0"
     inkscape:current-layer="layer2"
     shape-rendering="crispEdges" /><defs
     id="defs1"><inkscape:path-effect
       effect="fillet_chamfer"
       id="path-effect2"
       is_visible="true"
       lpeversion="1"
       nodesatellites_param="F,0,0,1,0,0,0,1 @ F,0,0,1,0,0,0,1 @ F,0,0,1,0,0,0,1 @ F,0,0,1,0,0,0,1"
       radius="0"
       unit="px"
       method="auto"
       mode="F"
       chamfer_steps="1"
       flexible="false"
       use_knot_distance="true"
       apply_no_radius="true"
       apply_with_radius="true"
       only_selected="false"
       hide_knots="false" /><inkscape:path-effect
       effect="fillet_chamfer"
       id="path-effect1"
       is_visible="true"
       lpeversion="1"
       nodesatellites_param="F,0,0,1,0,1,0,1 @ F,0,0,1,0,1,0,1 @ F,0,0,1,0,1,0,1 @ F,0,0,1,0,1,0,1"
       radius="1"
       unit="px"
       method="auto"
       mode="F"
       chamfer_steps="1"
       flexible="false"
       use_knot_distance="true"
       apply_no_radius="true"
       apply_with_radius="true"
       only_selected="false"
       hide_knots="false" /><linearGradient
       id="swatch18"
       inkscape:swatch="solid"><stop
         style="stop-color:#000000;stop-opacity:1;"
         offset="0"
         id="stop18" /></linearGradient><clipPath
       clipPathUnits="userSpaceOnUse"
       id="clipPath54"><path
         id="path54"
         style="stroke-width:0.0999999;stroke-linecap:square;paint-order:markers fill stroke;stop-color:#000000"
         d="m 1691.1994,-792.32001 h 1634.8919 v 92.82806 H 1691.1994 Z" /></clipPath></defs><g
     inkscape:label="L0 - Background"
     inkscape:groupmode="layer"
     id="layer1"
     style="display:inline"
     transform="scale(3.7795276)"
     sodipodi:insensitive="true"><rect
       style="fill:#434343;fill-opacity:1;stroke:none;stroke-width:0.465;stroke-opacity:1"
       id="rect2"
       width="63.5"
       height="35.71875"
       x="2.7755576e-17"
       y="2.7755576e-17"
       inkscape:label="rect2" /></g><g
     inkscape:groupmode="layer"
     id="layer3"
     inkscape:label="L1 - Nav Bar"
     style="display:inline;fill:#000000;fill-opacity:1;stroke:none"
     transform="scale(3.7795276)"
     sodipodi:insensitive="true"><rect
       style="fill:#000000;fill-opacity:1;stroke:none;stroke-width:0.508645;stroke-opacity:1"
       id="Nav_Background"
       width="7.9375"
       height="35.71875"
       x="-2.220446e-16"
       y="0" /><g
       style="fill:none;stroke:#a5a5a5;stroke-opacity:1"
       id="UpArrow"
       transform="matrix(0.35268627,0,0,0.35268627,-0.26348528,2.9115147)"><path
         d="M 15,11 12,8 m 0,0 -3,3 m 3,-3 v 8 m -4.8,4 h 9.6 c 1.1201,0 1.6802,0 2.108,-0.218 0.3763,-0.1917 0.6823,-0.4977 0.874,-0.874 C 20,18.4802 20,17.9201 20,16.8 V 7.2 C 20,6.0799 20,5.51984 19.782,5.09202 19.5903,4.71569 19.2843,4.40973 18.908,4.21799 18.4802,4 17.9201,4 16.8,4 H 7.2 C 6.0799,4 5.51984,4 5.09202,4.21799 4.71569,4.40973 4.40973,4.71569 4.21799,5.09202 4,5.51984 4,6.07989 4,7.2 v 9.6 c 0,1.1201 0,1.6802 0.21799,2.108 0.19174,0.3763 0.4977,0.6823 0.87403,0.874 C 5.51984,20 6.07989,20 7.2,20 Z"
         stroke="#000000"
         stroke-width="2"
         stroke-linecap="round"
         stroke-linejoin="round"
         id="path1"
         style="stroke:#a5a5a5;stroke-opacity:1" /></g><g
       style="fill:none;stroke:#a5a5a5;stroke-opacity:1"
       id="DownArrow"
       transform="matrix(0.35268627,0,0,-0.35268627,-0.26348528,32.807235)"><path
         d="M 15,11 12,8 m 0,0 -3,3 m 3,-3 v 8 m -4.8,4 h 9.6 c 1.1201,0 1.6802,0 2.108,-0.218 0.3763,-0.1917 0.6823,-0.4977 0.874,-0.874 C 20,18.4802 20,17.9201 20,16.8 V 7.2 C 20,6.0799 20,5.51984 19.782,5.09202 19.5903,4.71569 19.2843,4.40973 18.908,4.21799 18.4802,4 17.9201,4 16.8,4 H 7.2 C 6.0799,4 5.51984,4 5.09202,4.21799 4.71569,4.40973 4.40973,4.71569 4.21799,5.09202 4,5.51984 4,6.07989 4,7.2 v 9.6 c 0,1.1201 0,1.6802 0.21799,2.108 0.19174,0.3763 0.4977,0.6823 0.87403,0.874 C 5.51984,20 6.07989,20 7.2,20 Z"
         stroke="#000000"
         stroke-width="2"
         stroke-linecap="round"
         stroke-linejoin="round"
         id="path33"
         style="stroke:#a5a5a5;stroke-opacity:1" /></g><g
       style="fill:none;stroke:#a5a5a5;stroke-opacity:1"
       id="Check"
       transform="matrix(0.31745079,0,0,0.31745079,0.15934053,14.049965)"><path
         d="m 7.5,12 3,3 6,-6 M 7.8,21 h 8.4 c 1.6802,0 2.5202,0 3.162,-0.327 0.5645,-0.2876 1.0234,-0.7465 1.311,-1.311 C 21,18.7202 21,17.8802 21,16.2 V 7.8 C 21,6.11984 21,5.27976 20.673,4.63803 20.3854,4.07354 19.9265,3.6146 19.362,3.32698 18.7202,3 17.8802,3 16.2,3 H 7.8 C 6.11984,3 5.27976,3 4.63803,3.32698 4.07354,3.6146 3.6146,4.07354 3.32698,4.63803 3,5.27976 3,6.11984 3,7.8 v 8.4 c 0,1.6802 0,2.5202 0.32698,3.162 0.28762,0.5645 0.74656,1.0234 1.31105,1.311 C 5.27976,21 6.11984,21 7.8,21 Z"
         stroke="#000000"
         stroke-width="2"
         stroke-linecap="round"
         stroke-linejoin="round"
         id="path1-0"
         style="stroke:#a5a5a5;stroke-opacity:1" /></g></g><g
     inkscape:groupmode="layer"
     id="layer2"
     inkscape:label="L2 - Status Bar"
     transform="matrix(3.7795276,0,0,0.88084133,-4.3750001e-7,15.339148)"
     sodipodi:insensitive="true"><rect
       style="fill:#000000;fill-opacity:1;stroke:none;stroke-width:1.1175;stroke-opacity:1"
       id="Status_Background"
       width="55.5625"
       height="22.705564"
       x="7.9375"
       y="-17.414202"
       sodipodi:insensitive="true" /><path
       style="fill:#000000;fill-opacity:1;stroke:#fffffc;stroke-width:0.297644;stroke-dasharray:none;stroke-opacity:1"
       id="Fob_BatteryBody"
       width="10.201941"
       height="6.4695244"
       x="44.415771"
       y="-17.293535"
       ry="0"
       inkscape:path-effect="#path-effect1"
       sodipodi:type="rect"
       d="m 45.415771,-17.293535 h 8.201941 a 1,1 45 0 1 1,1 v 4.469524 a 1,1 135 0 1 -1,1 l -8.201941,0 a 1,1 45 0 1 -1,-1 v -4.469524 a 1,1 135 0 1 1,-1 z"
       transform="matrix(1.0079766,0,0,3.3553053,5.6507837,41.110233)"
       sodipodi:insensitive="true" /><path
       style="fill:#ffffff;fill-opacity:1;stroke:none;stroke-width:0.408309;stroke-dasharray:none;stroke-opacity:1"
       id="Fob_Battery_PosTerminal"
       width="0.65007287"
       height="8.6739655"
       x="60.793713"
       y="-10.3984"
       inkscape:path-effect="#path-effect2"
       sodipodi:type="rect"
       d="m 60.793713,-10.3984 h 0.650072 v 8.6739651 h -0.650072 z"
       transform="matrix(1.0175141,0,0,1.0470673,-1.0647531,0.48942508)"
       sodipodi:insensitive="true" /></g></svg>
