<?xml version="1.0" encoding="UTF-8" standalone="no"?>
<!-- Created with Inkscape (http://www.inkscape.org/) -->

<svg
   width="64"
   height="64"
   viewBox="0 0 64 64.000003"
   version="1.1"
   id="svg1"
   xml:space="preserve"
   inkscape:export-filename="..\..\..\Desktop\searchIcon.png"
   inkscape:export-xdpi="96"
   inkscape:export-ydpi="96"
   sodipodi:docname="searching-icon.svg"
   inkscape:version="1.3.2 (091e20e, 2023-11-25, custom)"
   xmlns:inkscape="http://www.inkscape.org/namespaces/inkscape"
   xmlns:sodipodi="http://sodipodi.sourceforge.net/DTD/sodipodi-0.dtd"
   xmlns:xlink="http://www.w3.org/1999/xlink"
   xmlns="http://www.w3.org/2000/svg"
   xmlns:svg="http://www.w3.org/2000/svg"><sodipodi:namedview
     id="namedview1"
     pagecolor="#ffffff"
     bordercolor="#666666"
     borderopacity="1.0"
     inkscape:showpageshadow="2"
     inkscape:pageopacity="0.0"
     inkscape:pagecheckerboard="0"
     inkscape:deskcolor="#d1d1d1"
     inkscape:document-units="px"
     inkscape:zoom="9.34375"
     inkscape:cx="32"
     inkscape:cy="23.438127"
     inkscape:window-width="1350"
     inkscape:window-height="948"
     inkscape:window-x="2084"
     inkscape:window-y="29"
     inkscape:window-maximized="0"
     inkscape:current-layer="g10449" /><defs
     id="defs1"><linearGradient
       id="linearGradient6"><stop
         style="stop-color:#000000;stop-opacity:1;"
         offset="0"
         id="stop10" /><stop
         style="stop-color:#ff9900;stop-opacity:1;"
         offset="0.30000001"
         id="stop11" /><stop
         style="stop-color:#ff9900;stop-opacity:1;"
         offset="0.5"
         id="stop14" /><stop
         style="stop-color:#ff9900;stop-opacity:1;"
         offset="0.69999999"
         id="stop13" /><stop
         style="stop-color:#000000;stop-opacity:1;"
         offset="0.9999997"
         id="stop12" /></linearGradient><linearGradient
       inkscape:collect="always"
       xlink:href="#linearGradient6"
       id="linearGradient12"
       x1="32.535118"
       y1="4.9230771"
       x2="50.729099"
       y2="12.414716"
       gradientUnits="userSpaceOnUse" /></defs><g
     inkscape:groupmode="layer"
     id="layer2"
     inkscape:label="BG"
     sodipodi:insensitive="true"><rect
       style="fill:#00ff00;fill-opacity:1;stroke-width:0.745"
       id="rect1"
       width="64"
       height="64"
       x="0"
       y="0" /></g><g
     id="g10449"
     transform="matrix(0.05075911,0,0,0.05072849,16.741361,16.648968)"
     style="display:inline;stroke-width:1.05103"><path
       style="color:#000000;fill:#ff9900;stroke-linecap:round;stroke-linejoin:round;-inkscape-stroke:none;paint-order:stroke fill markers;fill-opacity:1"
       d="m 206.04492,-12.792969 c -121.380675,0 -220.650389,99.36284 -220.650389,220.783199 0,121.42037 99.269714,220.78321 220.650389,220.78321 121.38068,0 220.65039,-99.36284 220.65039,-220.78321 0,-121.420359 -99.26971,-220.783199 -220.65039,-220.783199 z m 0,84.082031 c 75.90523,10e-7 136.56641,60.688518 136.56641,136.701168 0,76.01266 -60.66118,136.70118 -136.56641,136.70118 -75.90522,0 -136.568357,-60.68852 -136.568358,-136.70118 10e-7,-76.01265 60.663138,-136.701168 136.568358,-136.701168 z"
       id="path397" /><g
       id="path10026"
       inkscape:transform-center-x="-0.59233046"
       inkscape:transform-center-y="-20.347403"
       transform="matrix(1.3807551,0,0,1.2700888,273.60014,263.99768)" /><g
       id="g11314"
       transform="matrix(1.5092301,0,0,1.3955555,36.774048,-9.4503933)"
       style="stroke-width:50.6951" /><path
       style="color:#000000;fill:#ff9900;stroke-linecap:round;-inkscape-stroke:none;fill-opacity:1"
       d="m 332.15625,292.14648 a 42.041302,42.041302 0 0 0 -29.73242,12.30469 42.041302,42.041302 0 0 0 -0.0176,59.45508 L 544.0449,605.69336 a 42.041302,42.041302 0 0 0 59.45508,0.0176 42.041302,42.041302 0 0 0 0.0195,-59.45508 L 361.87891,304.4707 a 42.041302,42.041302 0 0 0 -29.72266,-12.32422 z"
       id="path453" /><path
       style="color:#000000;fill:#ff9900;stroke-linecap:round;stroke-linejoin:round;-inkscape-stroke:none;paint-order:stroke fill markers;fill-opacity:1"
       d="m 300.47656,-223.75195 a 10.51035,10.51035 0 0 0 -10.51172,10.50976 c 0,27.82165 -12.93301,54.03401 -35.0039,70.94922 -22.07089,16.91522 -50.72689,22.58021 -77.56641,15.33399 a 10.51035,10.51035 0 0 0 -12.88672,7.40625 10.51035,10.51035 0 0 0 7.40821,12.88671 c 33.14139,8.947634 68.5821,1.9411 95.83203,-18.94336 27.24993,-20.88445 43.23828,-53.29099 43.23828,-87.63281 a 10.51035,10.51035 0 0 0 -10.50977,-10.50976 z"
       id="path1009"
       transform="scale(1,-1)" /></g><path
     d="m 32,2.5195313 v 4.9707031 a 24.509804,24.509804 0 0 1 17.324219,7.1855466 l 3.521484,-3.521484 A 29.480075,29.480075 0 0 0 32,2.5195313 Z"
     style="display:none;fill:url(#linearGradient12);fill-opacity:1;fill-rule:nonzero;stroke:none;stroke-width:1.03985"
     id="path6"
     sodipodi:insensitive="true" /></svg>
