<?xml version="1.0" encoding="UTF-8" standalone="no"?>
<!-- Created with Inkscape (http://www.inkscape.org/) -->

<svg
   width="64"
   height="64"
   viewBox="0 0 64 64.000003"
   version="1.1"
   id="svg1"
   xml:space="preserve"
   inkscape:export-filename="settingsIcon.png"
   inkscape:export-xdpi="96"
   inkscape:export-ydpi="96"
   inkscape:version="1.3.2 (091e20e, 2023-11-25, custom)"
   sodipodi:docname="settings-icon.svg"
   xmlns:inkscape="http://www.inkscape.org/namespaces/inkscape"
   xmlns:sodipodi="http://sodipodi.sourceforge.net/DTD/sodipodi-0.dtd"
   xmlns="http://www.w3.org/2000/svg"
   xmlns:svg="http://www.w3.org/2000/svg"><sodipodi:namedview
     id="namedview1"
     pagecolor="#ffffff"
     bordercolor="#666666"
     borderopacity="1.0"
     inkscape:showpageshadow="2"
     inkscape:pageopacity="0.0"
     inkscape:pagecheckerboard="0"
     inkscape:deskcolor="#d1d1d1"
     inkscape:document-units="px"
     inkscape:zoom="8.2747365"
     inkscape:cx="51.723701"
     inkscape:cy="22.901031"
     inkscape:window-width="1920"
     inkscape:window-height="1017"
     inkscape:window-x="1912"
     inkscape:window-y="-8"
     inkscape:window-maximized="1"
     inkscape:current-layer="svg1" /><defs
     id="defs1" /><g
     inkscape:groupmode="layer"
     id="layer2"
     inkscape:label="BG"><rect
       style="fill:#00ff00;fill-opacity:1;stroke-width:0.745"
       id="rect1"
       width="64"
       height="64"
       x="0"
       y="0" /></g><g
     inkscape:label="Layer 1"
     inkscape:groupmode="layer"
     id="layer1"
     sodipodi:insensitive="true"><path
       d="m 34.606886,11.884517 c -0.399115,-0.399303 -0.866852,-0.596178 -1.40876,-0.596178 -0.541404,0 -1.0157,0.196875 -1.408255,0.596178 l -2.146945,2.140888 C 29.067211,13.652857 28.458195,13.327257 27.821428,13.035983 27.185165,12.744709 26.534774,12.494829 25.877824,12.277762 V 8.9843982 c 0,-0.5552881 -0.189214,-1.02274 -0.575714,-1.4089176 C 24.917123,7.189303 24.449891,7 23.89436,7 H 19.763445 C 19.23516,7 18.775497,7.189303 18.375878,7.5754806 17.983322,7.9616582 17.78654,8.4291101 17.78654,8.9843982 v 3.0152148 c -0.690252,0.162043 -1.360826,0.36548 -2.004657,0.61637 -0.649381,0.250384 -1.265461,0.5356 -1.84824,0.853629 l -2.37703,-2.344326 c -0.372372,-0.39274 -0.825981,-0.596177 -1.374448,-0.596177 -0.542413,0 -1.00914,0.203437 -1.4087599,0.596177 l -2.8911857,2.900119 c -0.3991149,0.399303 -0.5958972,0.867259 -0.5958972,1.408412 0,0.542163 0.1967823,1.016682 0.5958972,1.409423 l 2.1403859,2.147956 C 7.6502326,19.566676 7.3252896,20.176484 7.0341527,20.812541 6.7425112,21.449607 6.4927491,22.10081 6.2752794,22.757563 H 2.9844739 c -0.5560362,0 -1.0232681,0.189303 -1.4087595,0.575481 C 1.1897183,23.719727 1,24.187179 1,24.742971 v 4.132859 c 0,0.527523 0.1897183,0.988917 0.5752098,1.388725 0.3854915,0.392235 0.8532279,0.58911 1.4087595,0.58911 h 3.0127874 c 0.1624716,0.690071 0.3653087,1.36096 0.6165846,2.00459 0.2512758,0.650697 0.5353488,1.280696 0.8532279,1.889998 l -2.3432231,2.337258 c -0.39306,0.373054 -0.5958971,0.826875 -0.5958971,1.376106 0,0.541658 0.2028371,1.009615 0.5958971,1.409422 l 2.8987546,2.933436 c 0.3991144,0.372548 0.8663464,0.556298 1.4087593,0.556298 0.540899,0 1.01469,-0.183245 1.408255,-0.556298 l 2.146441,-2.181273 c 0.57521,0.372043 1.185235,0.69714 1.821498,0.989423 0.636767,0.290264 1.286653,0.541658 1.943604,0.758221 v 3.292859 c 0,0.555288 0.189718,1.022234 0.575209,1.407908 0.385996,0.387187 0.853733,0.576994 1.40876,0.576994 h 4.13041 c 0.528285,0 0.988452,-0.189807 1.388072,-0.576994 0.392051,-0.385674 0.588833,-0.85262 0.588833,-1.407908 V 42.64849 c 0.690756,-0.162044 1.360825,-0.365481 2.004152,-0.616874 0.650391,-0.250385 1.280599,-0.535601 1.88911,-0.85363 l 2.336159,2.34483 c 0.372877,0.39274 0.832541,0.596178 1.389081,0.596178 0.561082,0 1.021755,-0.202933 1.395137,-0.596178 l 2.932056,-2.899614 c 0.372373,-0.400312 0.556036,-0.867763 0.556036,-1.409423 0,-0.541657 -0.183159,-1.016177 -0.556036,-1.408916 L 34.60739,35.656907 c 0.372373,-0.575985 0.697316,-1.185288 0.988957,-1.82185 0.290128,-0.636562 0.5409,-1.287764 0.757865,-1.944519 h 3.29131 c 0.555027,0 1.021754,-0.190816 1.407245,-0.575984 0.386501,-0.386682 0.576219,-0.853629 0.576219,-1.409422 v -4.132354 c 0,-0.528533 -0.189718,-0.988412 -0.576219,-1.38923 -0.385491,-0.39274 -0.852218,-0.58911 -1.407245,-0.58911 H 36.631725 C 36.469254,23.130617 36.265912,22.466795 36.015141,21.81004 35.764874,21.145713 35.479792,20.522781 35.161913,19.939224 l 2.343727,-2.377139 c 0.392556,-0.372547 0.595898,-0.826874 0.595898,-1.375095 0,-0.542668 -0.202838,-1.009614 -0.595898,-1.409422 z m 22.863578,22.197895 c -0.255313,-0.179206 -0.526772,-0.241803 -0.820936,-0.189807 -0.294164,0.05098 -0.53333,0.202428 -0.706902,0.456346 l -0.96272,1.363989 c -0.347144,-0.147403 -0.707407,-0.265528 -1.081798,-0.363966 -0.371868,-0.09794 -0.748782,-0.173149 -1.125696,-0.227668 l -0.310815,-1.786008 c -0.05298,-0.300866 -0.199305,-0.536611 -0.44604,-0.70976 -0.245221,-0.173148 -0.516679,-0.231706 -0.817908,-0.178701 l -2.240793,0.390721 c -0.285586,0.04997 -0.517184,0.196874 -0.69782,0.443725 -0.176599,0.245841 -0.239671,0.518437 -0.186186,0.820312 l 0.284577,1.634567 c -0.359758,0.152956 -0.703875,0.327115 -1.027809,0.523989 -0.329989,0.197885 -0.637272,0.409904 -0.922354,0.638077 l -1.511187,-1.046466 c -0.240175,-0.177691 -0.504065,-0.244327 -0.802266,-0.193341 -0.294164,0.052 -0.52778,0.205457 -0.707407,0.456346 l -1.293718,1.847091 c -0.178618,0.254422 -0.241689,0.527018 -0.190223,0.819302 0.05147,0.295312 0.202837,0.533582 0.456636,0.70875 l 1.363853,0.962668 c -0.147335,0.346802 -0.265908,0.70774 -0.363795,1.082307 -0.09839,0.372547 -0.173068,0.749134 -0.228066,1.126225 l -1.785168,0.310962 c -0.300724,0.05249 -0.536358,0.199903 -0.709426,0.446249 -0.173572,0.245336 -0.231093,0.517428 -0.178618,0.818292 l 0.390033,2.241851 c 0.04995,0.28572 0.195773,0.517932 0.444022,0.698148 0.245725,0.176683 0.518193,0.239279 0.819421,0.186274 l 1.634303,-0.284711 c 0.153389,0.359927 0.326961,0.703701 0.523743,1.029302 0.197792,0.329135 0.411225,0.643124 0.641813,0.943485 l -1.05001,1.490191 c -0.178113,0.239784 -0.244716,0.504304 -0.19325,0.802644 0.05147,0.294303 0.204855,0.528533 0.456131,0.707741 l 1.849249,1.316033 c 0.251781,0.164062 0.522735,0.220095 0.816394,0.168605 0.294165,-0.05098 0.53434,-0.196371 0.711444,-0.435144 L 48.45935,51.71483 c 0.347145,0.147909 0.707912,0.266539 1.081799,0.363966 0.372372,0.09794 0.748779,0.17315 1.125188,0.227164 l 0.311824,1.787019 c 0.05248,0.301369 0.19981,0.53661 0.445536,0.708749 0.245221,0.173654 0.517184,0.232211 0.817908,0.179711 l 2.239786,-0.391225 c 0.2871,-0.05048 0.518698,-0.196371 0.699334,-0.443726 0.176095,-0.246346 0.239166,-0.517427 0.185682,-0.819808 L 55.081325,51.6906 c 0.359758,-0.152957 0.704379,-0.326105 1.029322,-0.523485 0.328475,-0.19839 0.642823,-0.410914 0.943546,-0.641106 l 1.488986,1.050504 c 0.239671,0.177693 0.508607,0.243822 0.809331,0.190818 0.30476,-0.0525 0.535348,-0.206466 0.700343,-0.454832 l 1.316423,-1.850119 c 0.163481,-0.252404 0.219488,-0.52298 0.167517,-0.816778 -0.05096,-0.294303 -0.195268,-0.534591 -0.43393,-0.711779 l -1.386558,-0.958629 c 0.148343,-0.347308 0.266413,-0.708245 0.364299,-1.082307 0.09789,-0.372548 0.172563,-0.749134 0.228066,-1.12673 l 1.784664,-0.310962 c 0.301228,-0.0525 0.536358,-0.198893 0.708921,-0.445744 0.173572,-0.246346 0.231597,-0.516923 0.179122,-0.818293 L 62.590335,40.949309 C 62.540385,40.663082 62.394058,40.43188 62.146818,40.250655 61.901093,40.073468 61.628625,40.011881 61.327397,40.06438 l -1.634303,0.285217 c -0.150866,-0.345288 -0.323934,-0.685529 -0.52223,-1.018196 -0.199305,-0.336708 -0.411729,-0.647669 -0.63929,-0.933895 l 1.046478,-1.511898 c 0.178114,-0.239783 0.244212,-0.503797 0.191737,-0.802644 -0.05096,-0.294302 -0.204351,-0.527523 -0.456131,-0.707235 z M 51.03316,39.77664 c 0.540394,-0.0949 1.068679,-0.08178 1.587881,0.03786 0.517185,0.124182 0.985426,0.331659 1.401191,0.621418 0.41627,0.293798 0.76846,0.664327 1.060102,1.109567 0.289118,0.448773 0.479341,0.941466 0.574705,1.482114 0.09435,0.541153 0.08073,1.069687 -0.03835,1.590144 -0.124125,0.516418 -0.330494,0.983869 -0.622135,1.401345 -0.29366,0.415456 -0.663005,0.768317 -1.108036,1.060095 -0.448563,0.289255 -0.941023,0.480072 -1.481922,0.574976 -0.53989,0.09389 -1.068175,0.08027 -1.588386,-0.03887 -0.517185,-0.124182 -0.983909,-0.330648 -1.401189,-0.621922 -0.414756,-0.293798 -0.767955,-0.663317 -1.059597,-1.108557 -0.288614,-0.448773 -0.48035,-0.94197 -0.5742,-1.48262 -0.09486,-0.540144 -0.08174,-1.068676 0.03784,-1.589133 0.124125,-0.517427 0.331503,-0.984879 0.621126,-1.402354 0.294164,-0.414447 0.664014,-0.767813 1.109045,-1.059592 0.449572,-0.289254 0.94203,-0.480072 1.48192,-0.574471 z M 21.314998,19.228456 c 1.110558,0 2.159559,0.210504 3.154571,0.629999 0.989462,0.427067 1.849754,1.002547 2.580876,1.726946 0.724058,0.731466 1.299268,1.593172 1.726134,2.58108 0.420307,0.995985 0.629703,2.046489 0.629703,3.157066 0,1.111081 -0.209396,2.161585 -0.629703,3.157065 -0.426866,0.988917 -1.002076,1.850624 -1.726134,2.58209 -0.731122,0.724903 -1.591414,1.299879 -2.580876,1.726946 -0.995012,0.420505 -2.044013,0.629999 -3.154571,0.629999 -1.110559,0 -2.160569,-0.209494 -3.156086,-0.629999 -0.987948,-0.427067 -1.848744,-1.002043 -2.579361,-1.726946 -0.725068,-0.731466 -1.300277,-1.592667 -1.727144,-2.58209 -0.419297,-0.99548 -0.629703,-2.045984 -0.629703,-3.157065 0,-1.110577 0.210406,-2.161081 0.629703,-3.157066 0.426867,-0.988413 1.002076,-1.849614 1.727144,-2.58108 0.730617,-0.724399 1.591413,-1.300383 2.579361,-1.726946 0.995012,-0.419495 2.045527,-0.629999 3.156086,-0.629999 z"
       id="path1"
       style="fill:#ff9900;fill-opacity:1;stroke-width:0.504689" /></g></svg>
